<?xml version="1.0" standalone="no"?>
<!DOCTYPE svg PUBLIC "-//W3C//DTD SVG 20010904//EN"
 "http://www.w3.org/TR/2001/REC-SVG-20010904/DTD/svg10.dtd">
<svg version="1.0" xmlns="http://www.w3.org/2000/svg"
 width="856.000000pt" height="856.000000pt" viewBox="0 0 856.000000 856.000000"
 preserveAspectRatio="xMidYMid meet">
<metadata>
Created by potrace 1.11, written by Peter Selinger 2001-2013
</metadata>
<g transform="translate(0.000000,856.000000) scale(0.100000,-0.100000)"
fill="#000000" stroke="none">
<path d="M4860 8145 c-14 -8 -31 -14 -39 -15 -20 0 -91 -60 -101 -84 -4 -12
-2 -77 4 -146 8 -76 9 -127 3 -131 -5 -4 -4 -16 4 -30 7 -13 13 -36 14 -52 2
-26 1 -26 -17 -11 -10 10 -18 25 -18 34 0 25 -8 29 -35 16 -15 -7 -25 -19 -25
-33 0 -12 -4 -24 -9 -27 -4 -3 -11 -19 -14 -35 -5 -24 -12 -29 -41 -33 -19 -2
-42 2 -52 9 -26 19 -58 16 -88 -8 l-26 -21 -15 36 c-18 42 -25 44 -51 15 l-19
-21 -17 41 c-9 23 -23 41 -31 41 -8 0 -22 16 -33 35 -28 53 -46 53 -109 0
l-55 -47 -81 13 c-70 11 -85 11 -107 -2 -30 -16 -64 -70 -69 -108 -10 -81 -17
-108 -33 -126 -38 -42 -53 -140 -30 -200 20 -54 40 -172 40 -242 0 -63 -3 -73
-17 -74 -38 -1 -68 -10 -83 -24 -22 -19 -23 -19 -66 10 -20 14 -60 32 -88 40
-28 8 -60 26 -71 40 -14 17 -33 25 -65 29 -25 2 -69 10 -99 16 -39 9 -60 9
-78 1 -13 -6 -36 -11 -51 -11 -74 0 -110 -85 -76 -179 19 -53 15 -72 -10 -52
-12 10 -22 7 -53 -12 -21 -13 -49 -28 -63 -32 -43 -13 -108 -44 -115 -55 -4
-6 -11 -7 -17 -4 -7 4 -8 2 -4 -5 4 -6 -2 -24 -13 -40 -12 -16 -21 -34 -21
-40 0 -6 -5 -11 -11 -11 -5 0 -17 -17 -26 -37 -8 -21 -16 -39 -18 -41 -2 -2
-27 13 -56 34 -76 53 -92 50 -184 -40 -43 -42 -86 -78 -95 -81 -18 -6 -32 -38
-36 -85 -2 -14 -6 -37 -10 -52 -4 -18 0 -41 10 -63 10 -19 14 -41 10 -47 -4
-7 -7 -31 -5 -55 l2 -42 -45 13 c-42 13 -46 12 -46 -3 0 -9 9 -22 21 -29 20
-13 20 -14 3 -27 -18 -13 -18 -14 -1 -32 9 -11 17 -25 17 -32 0 -7 5 -9 12 -5
8 5 9 -2 5 -24 -4 -22 -2 -32 9 -36 10 -4 13 -14 8 -33 -3 -16 -8 -41 -11 -58
-3 -16 -12 -39 -19 -50 -8 -11 -14 -26 -14 -34 0 -25 -43 -80 -62 -78 -10 1
-18 4 -18 8 0 4 -18 6 -40 5 -24 0 -42 4 -45 11 -7 20 -35 3 -35 -22 0 -16 6
-22 17 -21 13 1 19 -7 21 -26 5 -41 -35 -35 -93 14 -14 12 -25 14 -35 8 -12
-8 -6 -17 30 -49 25 -22 50 -40 56 -41 6 0 17 -7 24 -15 10 -12 10 -19 1 -28
-12 -12 -23 -3 -34 28 -8 21 -20 -7 -22 -52 -3 -60 9 -84 38 -79 12 3 25 5 29
5 4 1 5 7 2 15 -3 9 6 20 25 29 33 17 46 5 27 -25 -8 -14 -4 -24 22 -51 20
-20 35 -48 39 -70 l6 -37 -587 0 -586 0 -1 -22 c0 -13 -1 -897 -1 -1965 l-1
-1943 -179 0 -178 0 0 410 0 410 -380 0 c-373 0 -380 0 -380 -20 0 -20 7 -20
360 -20 l360 0 2 -412 3 -413 212 -3 213 -2 0 1970 0 1970 562 0 c555 0 561 0
544 -19 -22 -24 -42 -28 -166 -37 -52 -3 -99 -9 -105 -12 -5 -3 -26 -6 -45 -7
-27 0 -34 -4 -32 -16 3 -24 -60 -21 -70 3 -5 12 -16 15 -45 12 -21 -2 -89 -4
-151 -4 l-112 -1 6 -24 c4 -15 2 -25 -5 -25 -15 0 -14 -33 1 -49 11 -11 7 -13
-22 -7 -19 3 -42 14 -50 24 -34 39 -171 84 -187 60 -4 -7 -8 -107 -8 -223 -1
-227 -2 -236 -58 -288 -25 -23 -28 -32 -22 -60 3 -17 11 -102 16 -187 9 -147
11 -156 34 -173 30 -22 85 -117 85 -145 0 -20 -1 -20 -25 3 -13 14 -31 25 -38
25 -13 0 -13 -6 0 -42 8 -22 13 -60 11 -82 -3 -37 -5 -41 -27 -38 -13 2 -21
-1 -17 -6 3 -5 -2 -9 -12 -8 -14 1 -17 -9 -20 -63 -2 -36 2 -69 7 -74 14 -14
14 -57 1 -57 -5 0 -10 -5 -10 -11 0 -5 5 -7 11 -3 8 5 8 1 0 -14 -8 -14 -8
-23 -1 -27 8 -5 8 -11 1 -19 -14 -17 8 -264 26 -281 9 -9 9 -15 2 -17 -8 -3
-5 -48 11 -153 12 -83 25 -172 27 -198 5 -47 7 -48 37 -47 53 3 59 1 53 -19
-6 -23 16 -49 67 -80 24 -15 36 -30 36 -45 0 -13 3 -26 7 -30 14 -14 32 -91
24 -99 -9 -9 14 -94 30 -111 4 -5 6 -28 2 -51 -7 -57 16 -94 55 -87 26 5 26 4
10 -15 -22 -24 -23 -39 -4 -46 9 -4 12 -14 9 -26 -6 -24 17 -28 59 -12 35 13
78 2 78 -19 0 -25 26 -32 71 -19 32 10 42 10 56 -3 10 -8 38 -20 62 -27 24 -7
61 -24 82 -37 21 -13 41 -24 44 -24 3 0 17 12 31 27 21 23 28 25 44 15 27 -16
41 -15 69 7 35 27 23 64 -29 85 -21 8 -45 13 -52 11 -8 -3 -21 7 -30 23 -16
27 -16 31 0 65 19 43 24 44 75 17 20 -11 46 -20 57 -20 11 0 20 -4 20 -10 0
-26 32 -5 61 39 33 49 80 81 122 81 12 0 33 7 46 16 19 14 27 14 46 4 14 -7
35 -9 54 -5 29 6 36 2 77 -41 24 -27 46 -59 49 -71 2 -13 -9 -51 -24 -86 -43
-94 -73 -187 -75 -232 -2 -22 -6 -57 -11 -77 -6 -33 -5 -38 11 -38 11 0 52 25
93 55 41 30 82 55 92 55 10 0 21 5 24 10 3 6 17 7 31 4 16 -4 31 -1 42 9 9 8
28 17 42 19 17 2 26 10 28 26 2 14 10 22 23 22 16 0 19 -5 14 -20 -4 -13 0
-23 14 -32 26 -16 27 -28 2 -28 -25 0 -34 -14 -26 -40 4 -13 15 -20 32 -20 14
0 48 -12 76 -26 32 -16 60 -23 74 -19 27 6 83 62 83 81 0 7 9 18 20 24 21 11
34 -2 29 -31 -4 -31 3 -37 40 -41 33 -3 43 1 58 20 15 21 23 23 59 18 46 -6
64 6 64 42 0 20 4 23 23 19 12 -3 39 -9 60 -12 27 -5 37 -12 37 -26 0 -28 27
-35 120 -33 61 1 108 9 165 28 44 14 94 26 110 26 17 0 55 6 85 14 51 13 57
13 86 -5 43 -26 51 -24 58 16 5 25 15 39 35 50 28 14 29 13 35 -10 4 -14 6
-70 5 -125 -1 -91 -3 -104 -25 -129 -28 -34 -31 -49 -6 -47 18 1 19 -101 14
-1221 l-2 -323 -2150 0 -2150 0 0 -75 0 -75 4260 0 4260 0 0 75 0 75 -2060 0
-2060 0 0 518 c0 284 -3 635 -7 780 -4 157 -3 262 3 260 27 -7 75 13 84 37 10
27 29 31 61 14 46 -24 129 14 259 120 67 54 109 49 136 -15 14 -33 42 -39 30
-7 -11 28 13 43 58 37 22 -4 44 -9 48 -13 11 -9 13 -118 4 -168 -14 -77 24
-143 63 -109 9 7 33 20 55 27 43 16 56 39 65 121 2 13 71 -34 83 -56 6 -11 12
-39 12 -60 1 -34 6 -43 34 -59 27 -16 37 -17 64 -8 18 7 42 23 53 37 12 14 32
26 49 27 25 2 30 -2 38 -30 5 -18 19 -40 32 -48 22 -15 28 -15 61 -1 32 14 40
14 65 1 16 -8 41 -15 55 -15 18 0 28 -7 36 -27 25 -62 34 -79 52 -99 12 -14
15 -24 8 -28 -7 -5 -4 -20 9 -44 11 -20 20 -41 20 -46 0 -5 7 -18 16 -27 19
-21 20 -35 5 -147 -11 -90 -5 -124 29 -142 17 -9 26 -6 54 15 18 14 38 25 44
25 23 0 52 53 52 96 0 33 5 46 20 54 16 9 18 15 10 36 -14 36 -12 82 5 129 8
22 14 56 15 75 0 19 7 48 15 64 22 42 19 50 -23 69 -50 22 -51 22 -83 -9 l-28
-26 -33 23 c-40 29 -67 59 -68 77 0 28 -63 168 -82 185 -22 18 -83 23 -93 7
-12 -20 -45 -10 -55 16 -13 34 -6 44 33 43 18 0 59 7 91 16 58 16 60 16 101
-4 23 -12 49 -21 57 -21 15 0 58 51 58 69 0 16 47 43 67 39 12 -2 20 -16 25
-43 5 -33 3 -43 -13 -57 -27 -23 -24 -38 9 -39 15 0 58 -2 96 -5 53 -4 72 -2
85 10 10 9 37 26 62 39 24 13 46 32 47 42 4 15 -1 17 -33 11 -20 -4 -43 -10
-51 -13 -24 -9 -18 26 24 147 3 8 4 19 3 23 -1 5 3 6 8 3 5 -4 13 -1 16 5 5 7
24 8 55 4 l47 -7 7 36 c9 46 35 61 72 41 36 -18 52 -5 30 26 -34 49 -10 79 41
54 15 -7 53 -15 83 -16 30 -1 69 -9 87 -16 18 -7 42 -13 54 -13 24 0 82 57 87
86 2 10 6 32 9 48 5 23 3 27 -8 21 -12 -8 -12 -6 0 8 12 15 12 20 -5 32 -10 9
-14 15 -9 14 21 -3 32 1 32 14 0 6 4 19 7 28 5 10 2 16 -8 16 -8 0 -13 -4 -10
-9 3 -4 -1 -9 -8 -10 -14 -1 -30 -5 -38 -8 -14 -5 -49 -6 -45 0 2 3 -5 6 -15
6 -10 0 -16 -4 -14 -8 3 -4 -11 -8 -30 -8 -33 0 -48 11 -52 38 -2 11 7 15 23
10 5 -2 7 -7 5 -12 -2 -5 3 -4 11 3 12 9 16 9 20 -1 2 -8 8 -9 13 -4 5 5 4 11
-4 13 -6 3 -9 10 -5 16 4 7 0 7 -9 -1 -14 -11 -18 -10 -28 8 -6 11 -8 25 -5
30 8 13 52 13 60 0 3 -5 12 -10 18 -9 9 0 9 2 0 5 -7 3 -9 12 -6 20 4 12 8 12
22 2 14 -12 14 -11 2 4 -7 10 -17 16 -21 13 -5 -3 -11 -1 -14 4 -3 5 -16 7
-28 3 -17 -4 -20 -2 -15 11 4 10 2 14 -6 12 -19 -7 -41 11 -34 28 3 9 16 17
29 19 17 2 23 10 23 30 1 15 -2 25 -5 23 -11 -7 -51 26 -45 36 3 5 -2 6 -11 2
-11 -4 -15 -2 -12 7 2 7 14 15 27 17 15 2 20 -1 15 -9 -4 -7 -3 -8 4 -4 7 4
12 14 12 21 0 8 11 22 25 31 21 14 30 14 54 4 17 -6 35 -9 40 -5 6 3 11 38 11
79 0 39 5 77 10 82 8 8 7 26 0 60 -17 75 -13 273 10 439 11 83 20 155 20 161
0 6 -14 17 -31 24 l-31 13 41 38 41 38 0 89 c0 136 -8 180 -34 184 -14 2 -20
9 -18 21 5 27 -16 47 -49 47 -38 0 -76 18 -94 47 l-15 23 128 0 128 0 -1
-1302 c-1 -717 1 -1309 3 -1315 3 -10 51 -13 193 -13 l189 0 0 510 0 510 340
0 c265 0 340 -3 341 -12 1 -7 2 -323 3 -703 l1 -690 208 -3 c202 -2 207 -2
207 18 0 19 -6 20 -190 20 l-190 0 0 705 0 705 -377 -2 -378 -3 -3 -508 -2
-507 -155 0 -155 0 0 1320 0 1320 -145 0 c-161 0 -167 3 -119 59 35 42 81 49
138 21 41 -19 47 -20 68 -6 20 13 25 13 43 0 12 -9 30 -12 52 -8 29 5 33 4 33
-15 0 -11 4 -21 9 -21 5 0 12 -14 16 -30 4 -17 14 -38 23 -47 10 -10 17 -34
18 -57 2 -102 4 -116 18 -116 9 0 12 7 9 20 -6 23 15 53 32 46 21 -8 36 10 42
50 3 21 11 42 17 46 8 5 7 8 -1 8 -7 0 -13 5 -13 11 0 5 5 7 12 3 6 -4 8 -3 4
4 -3 6 -18 9 -32 6 -23 -4 -24 -3 -14 17 7 12 8 19 2 16 -12 -8 -49 19 -40 29
4 4 16 1 25 -7 17 -13 17 -13 4 4 -13 16 -13 20 0 28 8 5 24 8 37 6 12 -3 20
-2 18 1 -3 2 -1 13 5 23 10 20 39 26 39 8 0 -5 -5 -7 -12 -3 -7 5 -8 3 -3 -6
6 -10 11 -9 22 5 7 11 13 25 13 32 0 20 18 15 25 -7 3 -11 12 -20 18 -20 7 0
22 -3 34 -6 17 -5 30 3 58 32 19 22 35 44 35 49 0 6 7 23 15 39 12 22 13 37 5
67 -6 21 -16 37 -23 35 -6 -1 -9 -1 -4 1 12 8 8 21 -14 42 -11 10 -20 27 -19
37 6 52 -1 71 -27 84 -38 18 -50 14 -88 -26 -32 -33 -55 -44 -55 -24 0 6 5 10
10 10 15 0 12 26 -4 39 -12 10 -11 17 4 49 10 20 28 46 39 56 27 25 28 56 1
56 -11 0 -23 7 -26 15 -4 8 -15 15 -25 15 -21 0 -26 29 -7 48 8 8 9 18 1 35
-6 13 -8 29 -4 36 5 7 7 24 5 39 -1 15 4 34 12 43 18 20 1 75 -27 84 -10 4
-19 12 -19 19 0 7 -16 30 -35 52 -25 27 -34 45 -30 59 3 11 8 54 11 95 6 66 3
85 -24 165 -16 50 -35 110 -42 135 -6 25 -18 52 -25 60 -20 24 -47 81 -41 88
3 3 1 11 -5 19 -9 9 -8 13 0 13 6 0 11 -4 11 -9 0 -5 21 -8 48 -7 38 1 47 5
46 19 -1 9 1 15 5 12 4 -2 14 12 23 31 14 30 14 36 2 41 -8 3 -22 2 -31 -3
-10 -4 -22 -8 -28 -9 -5 0 -16 -4 -22 -8 -7 -5 -13 -6 -13 -2 0 3 -9 1 -20 -5
-12 -7 -17 -16 -13 -28 4 -14 2 -13 -10 3 -9 11 -17 16 -17 12 0 -5 -10 -1
-22 7 -28 20 -68 21 -68 2 0 -19 -20 -25 -122 -36 -61 -6 -94 -14 -102 -25
-10 -13 -17 -13 -66 4 -30 10 -82 24 -115 30 -33 5 -78 13 -100 17 -22 4 -46
6 -54 5 -8 -1 -10 3 -6 11 6 10 5 11 -6 1 -7 -7 -20 -13 -29 -13 -12 1 -11 4
5 16 20 16 19 16 -4 9 -19 -6 -23 -4 -19 7 5 11 -3 14 -32 14 -27 -1 -36 -4
-29 -12 11 -13 -15 -39 -30 -30 -5 3 -11 2 -13 -4 -2 -6 -17 -11 -35 -13 -17
-1 -29 -4 -27 -6 7 -7 -100 -42 -113 -36 -7 2 -13 20 -13 39 0 32 3 35 32 38
25 2 34 9 41 32 8 23 6 32 -7 41 -15 11 -16 84 -16 834 l0 821 -612 -2 -613
-3 -3 -512 c-1 -347 -6 -513 -13 -513 -20 0 -68 30 -83 52 -9 12 -16 37 -16
55 0 26 -6 37 -31 52 -30 18 -30 20 -11 30 11 6 27 11 36 11 14 0 30 43 80
223 20 68 33 217 20 217 -15 0 -47 67 -41 84 4 9 13 16 21 16 13 0 14 19 9
134 l-6 135 35 35 c25 25 45 36 66 36 l29 0 -5 53 c-2 28 -11 64 -18 79 -8 15
-14 43 -14 62 0 33 -2 35 -54 50 -64 19 -55 19 -86 1z m1270 -1125 c0 -434 -3
-790 -7 -790 -5 1 -20 11 -35 23 -36 29 -75 176 -58 216 15 38 -11 102 -39 94
-11 -3 -41 2 -68 10 -26 9 -64 18 -83 21 -33 6 -37 11 -59 69 -14 34 -46 105
-73 158 -26 53 -48 101 -48 107 0 7 -4 12 -9 12 -5 0 -13 10 -17 23 -11 35
-46 108 -71 149 -13 21 -23 43 -23 49 0 7 -11 26 -24 43 -13 17 -34 56 -47 86
-12 30 -46 93 -75 140 -28 47 -55 95 -58 108 -4 12 -13 22 -21 22 -7 0 -22 16
-34 35 -11 19 -25 35 -30 35 -5 0 -13 12 -19 28 -6 18 -21 31 -46 40 -21 8
-40 12 -42 9 -2 -2 1 -60 7 -128 16 -178 8 -266 -45 -458 -25 -90 -48 -184
-52 -207 -6 -42 -42 -94 -64 -94 -7 0 -10 157 -10 495 l0 495 575 0 575 0 0
-790z m1077 -955 c0 -8 -4 -12 -9 -9 -5 3 -6 10 -3 15 9 13 12 11 12 -6z
m-5880 -1330 c0 -8 -4 -12 -9 -9 -5 3 -6 10 -3 15 9 13 12 11 12 -6z m47 3
c-3 -4 -9 -8 -15 -8 -5 0 -9 4 -9 8 0 5 7 9 15 9 8 0 12 -4 9 -9z m114 -7 c-7
-9 -13 -18 -15 -20 -1 -2 -1 5 0 16 0 11 7 20 14 20 10 0 10 -4 1 -16z m-81
-48 c-4 -3 -1 -13 6 -22 11 -14 10 -14 -5 -2 -16 12 -16 31 -1 31 4 0 3 -3 0
-7z m55 -4 c2 -2 1 -3 -1 -2 -2 2 -9 -2 -16 -7 -8 -7 -12 -5 -12 4 0 12 22 16
29 5z m-87 -39 c-3 -5 -12 -10 -18 -10 -7 0 -6 4 3 10 19 12 23 12 15 0z m29
-6 c3 -8 2 -12 -4 -9 -6 3 -10 10 -10 16 0 14 7 11 14 -7z m-9 -34 c3 -6 -1
-7 -9 -4 -18 7 -21 14 -7 14 6 0 13 -4 16 -10z m110 -270 c3 -11 9 -19 13 -19
21 3 42 -2 38 -10 -3 -4 4 -17 17 -27 21 -18 21 -18 7 0 -8 10 -16 29 -17 42
-3 18 0 22 12 18 9 -4 14 -13 11 -20 -3 -7 0 -16 6 -20 7 -5 8 -2 3 7 -6 11
-4 10 8 -1 9 -8 19 -30 23 -48 5 -25 3 -32 -10 -32 -8 0 -18 -11 -22 -25 -9
-35 -30 -51 -49 -35 -8 7 -12 17 -8 23 3 5 2 8 -3 5 -5 -3 -20 -2 -33 3 -17 7
-22 15 -18 29 3 11 1 20 -5 20 -5 0 -6 5 -3 10 4 6 11 8 16 5 16 -10 10 1 -10
19 -13 12 -21 14 -26 6 -3 -6 -2 -9 3 -8 6 2 11 -1 12 -7 0 -5 -6 -12 -16 -13
-14 -3 -15 2 -9 40 9 53 9 53 34 55 12 1 23 -6 26 -17z m5472 -236 c-3 -3 -12
-4 -19 -1 -8 3 -5 6 6 6 11 1 17 -2 13 -5z m-5729 -259 c-3 -3 -9 2 -12 12 -6
14 -5 15 5 6 7 -7 10 -15 7 -18z m82 -51 c0 -8 -19 -13 -24 -6 -3 5 1 9 9 9 8
0 15 -2 15 -3z m-80 -86 c0 -4 -4 -8 -9 -8 -6 0 -12 4 -15 8 -3 5 1 9 9 9 8 0
15 -4 15 -9z m35 -17 c3 -5 2 -12 -3 -15 -5 -3 -9 1 -9 9 0 17 3 19 12 6z m45
-43 c0 -6 -3 -8 -7 -5 -3 4 -13 1 -22 -6 -14 -11 -14 -10 -2 6 15 20 31 22 31
5z m15 -46 c-3 -3 -11 0 -18 7 -9 10 -8 11 6 5 10 -3 15 -9 12 -12z m-25 -68
c0 -8 -19 -13 -24 -6 -3 5 1 9 9 9 8 0 15 -2 15 -3z m60 -17 c0 -2 -10 -12
-22 -23 l-23 -19 19 23 c18 21 26 27 26 19z m25 -16 c3 -5 2 -12 -3 -15 -5 -3
-9 1 -9 9 0 17 3 19 12 6z m5340 -792 c-3 -5 0 -6 8 -3 9 3 16 -3 20 -15 4
-15 0 -21 -12 -21 -18 0 -45 43 -34 54 9 8 24 -4 18 -15z m-2840 -99 c21 -22
29 -41 31 -75 4 -58 -9 -64 -72 -31 -49 25 -117 96 -92 96 7 0 24 9 38 20 35
27 62 25 95 -10z m2680 1 c3 -5 2 -12 -3 -15 -5 -3 -9 1 -9 9 0 17 3 19 12 6z
m39 1 c3 -5 -1 -9 -9 -9 -8 0 -12 4 -9 9 3 4 7 8 9 8 2 0 6 -4 9 -8z m46 -2
c0 -5 -5 -10 -11 -10 -5 0 -7 5 -4 10 3 6 8 10 11 10 2 0 4 -4 4 -10z m-2989
-20 c24 -11 57 -31 73 -44 l29 -24 -59 -7 c-65 -6 -290 -40 -342 -51 l-33 -7
23 36 c15 23 34 38 53 43 17 3 36 11 42 16 8 7 23 7 43 0 31 -11 90 1 90 18 0
8 28 40 34 40 2 0 23 -9 47 -20z m3029 4 c0 -8 -19 -13 -24 -6 -3 5 1 9 9 9 8
0 15 -2 15 -3z m105 -4 c-3 -5 -12 -10 -18 -10 -7 0 -6 4 3 10 19 12 23 12 15
0z m119 -2 c-3 -4 -9 -8 -15 -8 -5 0 -9 4 -9 8 0 5 7 9 15 9 8 0 12 -4 9 -9z
m-469 -28 c10 -11 15 -26 11 -36 -5 -14 -38 -16 -93 -5 -2 1 -3 10 -3 21 0 38
56 52 85 20z m238 -23 c4 3 7 4 7 0 0 -17 -20 -14 -36 6 -19 22 -19 22 2 4 11
-9 24 -14 27 -10z m107 -9 c0 -6 -3 -8 -7 -5 -3 4 -11 2 -18 -3 -8 -7 -12 -6
-12 3 0 7 9 14 19 14 10 1 18 -3 18 -9z m34 4 c3 -5 -1 -9 -9 -9 -8 0 -12 4
-9 9 3 4 7 8 9 8 2 0 6 -4 9 -8z m96 2 c0 -8 -19 -13 -24 -6 -3 5 1 9 9 9 8 0
15 -2 15 -3z m24 -10 c3 -8 2 -12 -4 -9 -6 3 -10 10 -10 16 0 14 7 11 14 -7z
m-54 -35 c0 -5 -4 -9 -8 -9 -5 0 -9 7 -9 15 0 8 4 12 9 9 4 -3 8 -9 8 -15z
m-100 5 c0 -8 -19 -13 -24 -6 -3 5 1 9 9 9 8 0 15 -2 15 -3z m137 -9 c0 -8 -4
-12 -9 -9 -4 3 -8 9 -8 15 0 5 4 9 8 9 5 0 9 -7 9 -15z m-3088 -16 c31 -11 32
-12 15 -37 -21 -32 -65 -71 -81 -72 -7 0 -15 -11 -19 -25 -6 -25 -9 -26 -83
-24 -43 1 -86 -3 -97 -8 -10 -6 -37 -14 -58 -17 -21 -4 -49 -14 -61 -22 -21
-13 -25 -13 -53 11 -36 30 -50 32 -54 5 -2 -12 -6 -21 -10 -20 -5 0 -27 0 -50
0 -33 0 -39 3 -30 12 7 7 12 20 12 30 0 10 6 18 14 18 7 0 19 7 26 15 9 11 9
19 -4 36 -11 16 -12 27 -5 41 8 14 22 18 72 18 65 0 280 23 357 39 63 12 73
12 109 0z m3027 -24 c-1 -8 -5 -17 -8 -21 -5 -4 -4 16 1 34 3 9 9 -1 7 -13z
m-2487 -209 c6 -25 15 -48 21 -51 19 -12 12 -73 -10 -85 -19 -10 -20 -8 -20
52 0 35 -4 78 -9 96 -5 17 -6 32 -1 32 4 0 13 -20 19 -44z"/>
<path d="M5512 7778 c-20 -20 -14 -55 9 -61 42 -11 60 13 43 57 -7 19 -35 21
-52 4z"/>
<path d="M5819 7538 c-15 -13 -39 -40 -54 -61 -24 -33 -27 -45 -27 -115 0 -77
0 -77 44 -124 50 -55 99 -78 164 -78 107 0 164 61 166 179 3 126 -69 203 -202
216 -59 5 -68 4 -91 -17z"/>
<path d="M1490 4296 c0 -2 8 -10 18 -17 15 -13 16 -12 3 4 -13 16 -21 21 -21
13z"/>
<path d="M1516 4247 c3 -10 9 -15 12 -12 3 3 0 11 -7 18 -10 9 -11 8 -5 -6z"/>
<path d="M1569 4204 c-11 -14 -24 -52 -14 -42 2 1 3 6 2 9 -1 4 7 16 17 28 11
12 17 21 14 21 -3 0 -12 -7 -19 -16z"/>
<path d="M1840 6580 c-32 -5 -35 -8 -35 -40 0 -28 5 -36 27 -44 34 -12 58 6
58 43 0 38 -11 47 -50 41z"/>
<path d="M2035 6511 c-3 -5 -1 -12 5 -16 5 -3 10 1 10 9 0 18 -6 21 -15 7z"/>
<path d="M6284 6118 l-19 -23 23 19 c21 18 27 26 19 26 -2 0 -12 -10 -23 -22z"/>
<path d="M2136 6017 c2 -7 -4 -22 -16 -32 -15 -13 -20 -31 -20 -68 0 -42 5
-54 34 -83 31 -31 35 -33 72 -23 50 14 72 34 84 77 7 27 6 43 -6 69 -9 18 -17
33 -18 33 -1 0 -26 9 -56 20 -64 23 -81 25 -74 7z"/>
<path d="M1492 5913 c2 -10 19 -28 38 -40 19 -13 42 -29 50 -36 8 -7 30 -13
48 -14 31 -2 32 0 32 35 0 20 -7 45 -14 54 -12 17 -14 17 -28 0 -9 -9 -18 -24
-21 -32 -5 -13 -6 -13 -6 0 -1 13 -2 13 -12 0 -8 -12 -9 -10 -4 8 5 17 2 22
-14 22 -11 0 -23 5 -26 10 -11 18 -47 12 -43 -7z"/>
<path d="M1985 5810 c-6 -10 29 -50 44 -50 22 0 23 24 1 42 -25 20 -36 22 -45
8z"/>
<path d="M870 5599 c0 -11 5 -17 10 -14 6 3 10 13 10 21 0 8 -4 14 -10 14 -5
0 -10 -9 -10 -21z"/>
<path d="M1871 5536 c-22 -26 19 -86 67 -100 26 -9 37 11 28 49 -13 53 -69 83
-95 51z"/>
<path d="M1570 5504 c0 -19 8 -34 21 -42 31 -20 45 -1 25 34 -8 16 -15 25 -16
20 0 -5 -7 -3 -15 4 -13 11 -15 8 -15 -16z"/>
<path d="M1497 5458 c-11 -12 -25 -17 -37 -13 -10 3 -21 1 -25 -5 -3 -6 -11
-8 -16 -5 -5 4 -9 -1 -9 -9 0 -18 27 -25 90 -23 37 2 46 6 48 23 2 11 -5 27
-15 35 -16 14 -20 14 -36 -3z"/>
<path d="M1720 5455 c-7 -8 -22 -13 -34 -11 -32 5 -56 -12 -56 -39 0 -24 3
-25 59 -25 103 0 145 9 158 36 11 25 8 34 -14 34 -7 0 -13 -7 -13 -16 0 -23
-33 -13 -45 14 -11 25 -37 29 -55 7z"/>
<path d="M680 5087 c0 -20 30 -57 46 -57 17 0 18 9 4 44 -10 27 -50 37 -50 13z"/>
<path d="M7796 5025 c-11 -8 -16 -21 -13 -30 4 -9 1 -15 -8 -15 -23 0 -17 -28
10 -46 37 -24 60 -15 62 26 2 33 -13 80 -26 80 -3 0 -14 -7 -25 -15z"/>
<path d="M340 5006 c0 -28 13 -46 33 -46 11 0 35 -11 53 -25 21 -16 35 -21 39
-14 8 12 -22 49 -40 49 -7 0 -20 11 -29 25 -18 27 -56 34 -56 11z"/>
<path d="M820 4902 c0 -10 6 -26 13 -35 11 -16 15 -16 32 -3 19 14 19 15 1 35
-23 26 -46 27 -46 3z"/>
<path d="M7595 4840 c-3 -5 -1 -10 4 -10 6 0 11 5 11 10 0 6 -2 10 -4 10 -3 0
-8 -4 -11 -10z"/>
<path d="M7550 4836 c0 -2 8 -10 18 -17 15 -13 16 -12 3 4 -13 16 -21 21 -21
13z"/>
<path d="M7626 4822 c-3 -5 1 -9 9 -9 8 0 12 4 9 9 -3 4 -7 8 -9 8 -2 0 -6 -4
-9 -8z"/>
<path d="M7615 4770 c-4 -6 -10 -8 -15 -5 -4 3 -7 -2 -6 -10 1 -8 4 -16 7 -17
2 -2 3 -1 1 1 -1 2 5 13 15 23 9 10 13 18 10 18 -3 0 -9 -5 -12 -10z"/>
<path d="M7310 4440 c0 -5 5 -10 11 -10 5 0 7 5 4 10 -3 6 -8 10 -11 10 -2 0
-4 -4 -4 -10z"/>
<path d="M7346 4422 c-3 -5 1 -9 9 -9 8 0 15 4 15 9 0 4 -4 8 -9 8 -6 0 -12
-4 -15 -8z"/>
<path d="M7390 4401 c0 -6 4 -13 10 -16 6 -3 7 1 4 9 -7 18 -14 21 -14 7z"/>
<path d="M7294 4198 c-4 -7 -3 -10 1 -5 5 4 18 -1 29 -10 21 -18 21 -18 2 5
-22 26 -23 26 -32 10z"/>
<path d="M7376 4202 c-3 -5 1 -9 9 -9 8 0 12 4 9 9 -3 4 -7 8 -9 8 -2 0 -6 -4
-9 -8z"/>
<path d="M7294 4166 c1 -8 5 -18 8 -22 4 -3 5 1 4 10 -1 8 -5 18 -8 22 -4 3
-5 -1 -4 -10z"/>
<path d="M7310 4020 c-37 -14 -46 -23 -48 -46 -2 -16 -8 -35 -14 -41 -28 -34
36 -60 75 -30 27 20 62 139 40 136 -5 -1 -28 -9 -53 -19z"/>
<path d="M673 3959 c-32 -12 -30 -39 2 -39 26 0 44 25 29 40 -5 4 -19 4 -31
-1z"/>
<path d="M826 3673 c-13 -13 -5 -30 29 -66 19 -20 35 -46 35 -57 0 -20 65
-100 81 -100 5 0 6 21 2 47 -5 35 -15 57 -40 83 -18 19 -36 43 -39 53 -6 19
-58 50 -68 40z"/>
<path d="M7323 3656 c-48 -22 -45 -55 8 -89 22 -15 46 -27 52 -27 7 0 29 21
50 47 33 40 36 48 23 61 -20 21 -95 25 -133 8z"/>
<path d="M7177 3533 c-4 -3 -7 -36 -7 -73 l0 -67 101 -7 c121 -8 137 -1 94 44
-26 27 -30 28 -45 15 -26 -24 -50 -19 -50 10 0 46 -27 85 -59 85 -15 0 -31 -3
-34 -7z"/>
<path d="M6827 2923 c-3 -5 6 -9 19 -9 13 -1 24 2 24 7 0 11 -37 12 -43 2z"/>
<path d="M6873 2885 c0 -8 3 -13 5 -10 3 3 10 0 17 -5 8 -7 12 -5 12 5 0 8 -3
13 -5 10 -3 -3 -10 0 -17 5 -8 7 -12 5 -12 -5z"/>
<path d="M6863 2844 c9 -11 15 -23 12 -26 -3 -2 2 -5 10 -5 10 0 12 4 5 12 -5
7 -6 16 -2 21 4 5 3 6 -2 2 -5 -4 -16 -2 -25 4 -12 10 -12 7 2 -8z"/>
<path d="M6942 2844 c10 -10 20 -16 22 -13 3 3 -5 11 -17 18 -21 13 -21 12 -5
-5z"/>
<path d="M6909 2837 c6 -8 9 -16 6 -19 -3 -2 2 -5 10 -5 13 0 13 3 -2 19 -19
21 -31 25 -14 5z"/>
<path d="M6817 2825 c-8 -8 -18 -11 -22 -7 -5 4 -5 2 -1 -5 8 -14 36 -6 36 9
0 6 8 4 18 -3 15 -13 16 -12 3 4 -16 21 -16 21 -34 2z"/>
<path d="M6917 2768 c19 -21 31 -25 14 -5 -6 8 -9 16 -6 19 3 2 -2 5 -10 5
-13 0 -13 -3 2 -19z"/>
<path d="M6950 2775 c5 -7 6 -16 2 -21 -4 -5 -3 -6 2 -2 5 4 16 2 25 -4 12
-10 12 -7 -2 8 -9 11 -15 23 -12 26 3 2 -2 5 -10 5 -10 0 -12 -4 -5 -12z"/>
<path d="M7013 2755 c0 -8 4 -12 9 -9 5 3 6 10 3 15 -9 13 -12 11 -12 -6z"/>
<path d="M6934 2726 c1 -8 5 -18 8 -22 4 -3 5 1 4 10 -1 8 -5 18 -8 22 -4 3
-5 -1 -4 -10z"/>
<path d="M6826 2722 c-3 -5 1 -9 9 -9 8 0 15 4 15 9 0 4 -4 8 -9 8 -6 0 -12
-4 -15 -8z"/>
<path d="M6866 2702 c-2 -4 4 -8 14 -8 10 0 16 4 14 8 -3 4 -9 8 -14 8 -5 0
-11 -4 -14 -8z"/>
<path d="M6980 2706 c0 -2 8 -10 18 -17 15 -13 16 -12 3 4 -13 16 -21 21 -21
13z"/>
<path d="M6924 2682 c23 -26 23 -26 23 -7 0 8 -3 13 -5 10 -3 -3 -12 1 -21 7
-10 8 -9 4 3 -10z"/>
<path d="M6900 2666 c0 -2 8 -10 18 -17 15 -13 16 -12 3 4 -13 16 -21 21 -21
13z"/>
<path d="M4095 2090 c-4 -6 -10 -8 -14 -6 -4 3 -8 -1 -8 -9 0 -13 4 -12 19 2
18 16 22 23 14 23 -3 0 -8 -5 -11 -10z"/>
<path d="M3267 2014 c-12 -12 12 -41 45 -54 18 -8 45 -22 60 -32 36 -25 52
-24 38 2 -6 11 -33 31 -60 45 -27 13 -51 29 -55 35 -7 11 -19 13 -28 4z"/>
<path d="M6185 1860 c-15 -17 -15 -20 -1 -42 9 -14 27 -30 39 -37 16 -9 29
-31 41 -71 10 -32 26 -66 36 -75 10 -9 21 -28 25 -42 3 -13 27 -57 53 -96 58
-89 69 -120 77 -225 7 -98 24 -132 66 -132 34 0 76 18 83 35 2 7 -7 29 -20 49
-22 33 -24 39 -12 64 22 46 83 39 90 -11 3 -24 25 -32 47 -18 12 8 13 15 3 35
-11 24 -72 65 -72 49 0 -5 -14 19 -30 51 -16 32 -38 69 -50 81 -11 12 -20 28
-20 37 0 22 -19 34 -60 37 -38 3 -60 16 -60 36 0 7 -9 32 -20 57 -10 24 -17
53 -14 64 4 14 -9 42 -41 87 -54 78 -53 77 -104 82 -29 3 -43 -1 -56 -15z
m315 -416 c0 -8 -19 -13 -24 -6 -3 5 1 9 9 9 8 0 15 -2 15 -3z m14 -86 c-3 -4
-9 -8 -15 -8 -5 0 -9 4 -9 8 0 5 7 9 15 9 8 0 12 -4 9 -9z m76 8 c0 -2 -7 -7
-16 -10 -8 -3 -12 -2 -9 4 6 10 25 14 25 6z m25 -26 c3 -6 -1 -7 -9 -4 -18 7
-21 14 -7 14 6 0 13 -4 16 -10z m-91 -26 c3 -8 2 -12 -4 -9 -6 3 -10 10 -10
16 0 14 7 11 14 -7z m-3 -81 c12 -16 12 -17 -2 -6 -9 7 -20 9 -24 5 -5 -4 -5
-1 -1 6 9 16 11 15 27 -5z"/>
<path d="M6562 1714 c4 -21 22 -23 26 -1 2 10 -3 17 -13 17 -10 0 -15 -6 -13
-16z"/>
</g>
</svg>
